<svg xmlns="http://www.w3.org/2000/svg" width="500" height="800" viewBox="0 0 500 800">
    <g transform="translate(40,50)">
        <line x1="468.727" y1="483.857" x2="279.73" y2="483.857" fill="none" stroke="#f2f2f2" stroke-linecap="round" stroke-linejoin="round" stroke-width="11"/><polyline points="468.727 506.063 350.058 506.063 298.001 454.006" fill="none" stroke="#f2f2f2" stroke-linecap="round" stroke-linejoin="round" stroke-width="11"/><line x1="468.727" y1="528.268" x2="410.373" y2="528.268" fill="none" stroke="#f2f2f2" stroke-linecap="round" stroke-linejoin="round" stroke-width="11"/><line x1="159.308" y1="594.764" x2="49.992" y2="594.764" fill="none" stroke="#f2f2f2" stroke-linecap="round" stroke-linejoin="round" stroke-width="11"/><polyline points="468.727 550.473 323.9 550.473 279.61 594.764 178.208 594.764" fill="none" stroke="#f2f2f2" stroke-linecap="round" stroke-linejoin="round" stroke-width="11"/><line x1="468.727" y1="572.679" x2="149.086" y2="572.679" fill="none" stroke="#f2f2f2" stroke-linecap="round" stroke-linejoin="round" stroke-width="11"/><line x1="468.727" y1="594.884" x2="305.616" y2="594.884" fill="none" stroke="#f2f2f2" stroke-linecap="round" stroke-linejoin="round" stroke-width="11"/><line x1="468.727" y1="617.089" x2="200.858" y2="617.089" fill="none" stroke="#f2f2f2" stroke-linecap="round" stroke-linejoin="round" stroke-width="11"/><polyline points="468.727 639.295 270.751 639.295 227.149 595.693" fill="none" stroke="#f2f2f2" stroke-linecap="round" stroke-linejoin="round" stroke-width="11"/><line x1="468.727" y1="661.5" x2="354.556" y2="661.5" fill="none" stroke="#f2f2f2" stroke-linecap="round" stroke-linejoin="round" stroke-width="11"/><line x1="333.23" y1="661.5" x2="292.268" y2="661.5" fill="none" stroke="#f2f2f2" stroke-linecap="round" stroke-linejoin="round" stroke-width="11"/><line x1="31.901" y1="594.884" x2="5.5" y2="594.884" fill="none" stroke="#f2f2f2" stroke-linecap="round" stroke-linejoin="round" stroke-width="11"/><line x1="468.727" y1="36.867" x2="234.834" y2="36.867" fill="none" stroke="#f2f2f2" stroke-linecap="round" stroke-linejoin="round" stroke-width="11"/><line x1="208.654" y1="36.867" x2="164.861" y2="36.867" fill="none" stroke="#f2f2f2" stroke-linecap="round" stroke-linejoin="round" stroke-width="11"/><polyline points="468.727 59.072 321.794 59.072 268.222 5.5" fill="none" stroke="#f2f2f2" stroke-linecap="round" stroke-linejoin="round" stroke-width="11"/><line x1="468.727" y1="81.277" x2="366.084" y2="81.277" fill="none" stroke="#f2f2f2" stroke-linecap="round" stroke-linejoin="round" stroke-width="11"/><line x1="468.727" y1="103.482" x2="234.834" y2="103.482" fill="none" stroke="#f2f2f2" stroke-linecap="round" stroke-linejoin="round" stroke-width="11"/><line x1="468.727" y1="116.345" x2="420.191" y2="164.881" fill="none" stroke="#f2f2f2" stroke-linecap="round" stroke-linejoin="round" stroke-width="11"/><line x1="468.727" y1="145.83" x2="395.923" y2="218.635" fill="none" stroke="#f2f2f2" stroke-linecap="round" stroke-linejoin="round" stroke-width="11"/>
    </g>
</svg>
