<?xml version="1.0" encoding="UTF-8" standalone="no"?>
<svg
   xmlns:dc="http://purl.org/dc/elements/1.1/"
   xmlns:cc="http://creativecommons.org/ns#"
   xmlns:rdf="http://www.w3.org/1999/02/22-rdf-syntax-ns#"
   xmlns:svg="http://www.w3.org/2000/svg"
   xmlns="http://www.w3.org/2000/svg"
   xmlns:sodipodi="http://sodipodi.sourceforge.net/DTD/sodipodi-0.dtd"
   xmlns:inkscape="http://www.inkscape.org/namespaces/inkscape"
   width="197"
   height="30"
   viewBox="0 0 197 30"
   version="1.1"
   id="svg100"
   sodipodi:docname="fresh-report.svg"
   style="fill:none"
   inkscape:version="0.92.3 (5aff6ba, 2018-11-25)">
  <metadata
     id="metadata106">
    <rdf:RDF>
      <cc:Work
         rdf:about="">
        <dc:format>image/svg+xml</dc:format>
        <dc:type
           rdf:resource="http://purl.org/dc/dcmitype/StillImage" />
        <dc:title></dc:title>
      </cc:Work>
    </rdf:RDF>
  </metadata>
  <defs
     id="defs104" />
  <sodipodi:namedview
     pagecolor="#ffffff"
     bordercolor="#666666"
     borderopacity="1"
     objecttolerance="10"
     gridtolerance="10"
     guidetolerance="10"
     inkscape:pageopacity="0"
     inkscape:pageshadow="2"
     inkscape:window-width="1920"
     inkscape:window-height="1052"
     id="namedview102"
     showgrid="false"
     inkscape:snap-text-baseline="false"
     inkscape:zoom="4.8722222"
     inkscape:cx="125.14646"
     inkscape:cy="-2.512713"
     inkscape:window-x="1920"
     inkscape:window-y="0"
     inkscape:window-maximized="1"
     inkscape:current-layer="svg100" />
  <path
     d="m 24.4212,8.84139 c 0,0 4.8213,4.87931 3.402,13.04661 4.8213,-1.9285 6.6934,-5.1612 7.2567,-8.3993 0,0 1.6568,-6.12825 4.1973,-8.6812 -5.0367,0.77914 -5.5558,-1.20465 -14.856,4.03389 z"
     id="path78"
     inkscape:connector-curvature="0"
     style="fill:#11b5a4" />
  <path
     d="m 25.4042,23.6895 c 0.116,-0.6244 1.9716,-6.9847 -1.712,-12.1569 C 17.5124,4.66942 8.22876,3.70239 8.22876,3.70239 10.0402,7.22238 10.1009,10.5103 12.0946,17.2076 c 2.4024,6.9405 11.2663,7.4047 11.9235,7.4324 0.5964,0.9449 1.9605,2.2103 5.0863,2.8679 l 0.348,-1.6578 c -2.7338,-0.547 -3.7168,-1.5859 -4.0482,-2.1606 z M 16.695,15.0857 c -0.7179,-2.3209 -2.7116,-6.22766 -5.0753,-8.28881 0,0 7.0138,1.85116 11.0453,14.99171 -3.7941,-1.1439 -5.4177,-4.918 -5.97,-6.7029 z"
     id="path80"
     inkscape:connector-curvature="0"
     style="fill:#11b5a4" />
  <path
     d="M 9.20076,1.69644 C 5.27414,3.54761 3.70571,8.07331 3.70571,14.9586 c 0,6.7857 1.56843,11.3391 5.49505,13.3173 L 8.75895,29.9724 C 2.73372,27.8946 0,23.2087 0,15.0138 0,6.81893 2.73372,2.0722 8.75895,0 Z"
     id="path82"
     inkscape:connector-curvature="0"
     style="fill:#4e555d" />
  <path
     d="m 38.239,0 c 6.0252,2.0722 8.7589,6.78578 8.7589,15.0138 0,8.228 -2.7337,12.8808 -8.7589,14.9862 l -0.4695,-1.6964 c 3.9266,-1.9783 5.4951,-6.5316 5.4951,-13.3174 0,-6.91289 -1.5685,-11.43306 -5.4951,-13.26213 z"
     id="path84"
     inkscape:connector-curvature="0"
     style="fill:#4e555d" />
  <path
     d="m 63.1337,7.26069 c -1.469,0 -2.071,0.33708 -2.2864,1.8788 l -0.2651,1.73511 h 3.6395 l -0.243,1.807 H 60.3392 L 58.7487,23.9931 C 58.4339,26.2034 57.1803,27.4412 54.916,27.4412 53.941,27.4344 52.9673,27.3699 52,27.2478 l 0.359,-1.7351 h 1.8059 c 1.4469,0 2.0489,-0.3371 2.2643,-1.8788 L 57.97,12.6926 h -2.0986 l 0.2154,-1.6854 2.1428,-0.1215 0.2871,-2.09986 c 0.3148,-2.21036 1.5685,-3.42052 3.8659,-3.42052 1.1511,-0.01342 2.302,0.04378 3.4462,0.1713 l -0.3866,1.73512 z"
     id="path86"
     inkscape:connector-curvature="0"
     style="fill:#11b5a4" />
  <path
     d="m 74.1183,12.7589 h -0.6517 c -1.3254,0 -2.6011,0.8897 -4.6501,2.3872 l -1.0382,7.4986 H 65.4422 L 67.099,10.8801 h 1.7838 l -0.0939,2.7243 c 1.8777,-1.9286 3.7113,-3.0116 5.3018,-3.0116 h 0.6296 z"
     id="path88"
     inkscape:connector-curvature="0"
     style="fill:#11b5a4" />
  <path
     d="m 85.611,22.2523 c -1.5686,0.4803 -3.2034,0.7079 -4.8434,0.6742 -4.0702,0 -5.4675,-2.0944 -4.8931,-6.4819 0.6241,-4.581 2.2422,-5.8795 6.5057,-5.8795 3.8659,0 4.7937,1.4477 4.4568,3.8073 -0.3369,2.3595 -1.7341,3.1829 -4.6004,3.3984 l -4.0591,0.3647 c 0,2.3596 1.1045,2.8458 2.9601,2.8458 1.3033,0 2.9878,-0.1436 4.3353,-0.2873 z m -3.3744,-6.2166 c 1.447,-0.094 2.071,-0.5029 2.2643,-1.8567 0.2154,-1.6136 -0.602,-1.6578 -2.4797,-1.6578 -2.3858,0 -3.2031,0.6521 -3.7112,3.8681 z"
     id="path90"
     inkscape:connector-curvature="0"
     style="fill:#11b5a4" />
  <path
     d="m 92.067,16.8093 c -1.6844,-0.7957 -2.4797,-1.713 -2.2643,-3.4205 0.2651,-2.2435 1.8777,-2.868 4.9704,-2.8182 1.6859,0.0276 3.3683,0.1642 5.0367,0.4089 l -0.2872,1.6578 c -1.4911,-0.0498 -2.8884,-0.094 -4.6722,-0.1216 -1.9274,0 -2.6509,0.0497 -2.7613,1.0333 -0.1215,0.8952 0.4363,1.1328 1.3972,1.5694 l 3.1811,1.4478 c 1.828,0.8454 2.579,1.5914 2.336,3.3984 -0.3589,2.6745 -2.2642,2.9397 -5.5668,2.9397 -1.5233,0.0038 -3.0446,-0.1089 -4.5507,-0.337 l 0.2651,-1.7352 c 1.1045,0.094 2.6012,0.1216 3.6836,0.1216 2.9602,0 3.7334,-0.2431 3.8659,-1.2046 0.1436,-0.8676 -0.4363,-1.0113 -1.469,-1.492 z"
     id="path92"
     inkscape:connector-curvature="0"
     style="fill:#11b5a4" />
  <path
     d="m 106.133,10.3938 c -0.128,0.975 -0.312,1.9418 -0.552,2.8955 2.049,-1.8069 3.755,-2.7242 5.445,-2.7242 1.955,0 3.11,1.1328 2.795,3.3155 l -1.254,8.7751 h -2.358 l 1.132,-8.1949 c 0.193,-1.4699 -0.072,-1.9064 -1.104,-1.9064 -1.447,0 -2.845,0.9891 -4.866,2.5806 l -1.038,7.5207 h -2.336 l 2.386,-16.87604 h 2.313 z"
     id="path94"
     inkscape:connector-curvature="0"
     style="fill:#11b5a4" />
  <text
     xml:space="preserve"
     style="font-style:normal;font-variant:normal;font-weight:normal;font-stretch:normal;font-size:14.66666698px;line-height:1.25;font-family:Manjari;-inkscape-font-specification:Manjari;letter-spacing:0px;word-spacing:0px;fill:#4e555d;fill-opacity:1;stroke:none"
     x="117.91335"
     y="22.40593"
     id="text110"><tspan
       sodipodi:role="line"
       id="tspan108"
       x="117.91335"
       y="22.40593"
       style="font-style:normal;font-variant:normal;font-weight:bold;font-stretch:normal;font-size:16px;font-family:FreeSans;-inkscape-font-specification:FreeSans;word-spacing:0.02px;fill:#4e555d;fill-opacity:1"
       dx="0.02"
       dy="0">REPORTS</tspan></text>
</svg>
