<svg width="305" height="45" viewBox="0 0 305 45" fill="none" xmlns="http://www.w3.org/2000/svg">
    <path d="M36.3 13.3C36.3 13.3 43.5 20.6001 41.4 32.7001C48.6 29.8001 51.4001 25.0001 52.2001 20.2001C52.2001 20.2001 54.6 11.1 58.4 7.30004C50.9 8.40004 50.2 5.50004 36.3 13.3Z" fill="#4C4C4C"/>
    <path d="M37.7999 35.4C37.9999 34.5 40.7999 25 35.2999 17.3C26.0999 7.09996 12.2 5.59995 12.2 5.59995C14.9 10.8 15 15.7 17.9 25.7C21.5 36 34.7 36.7 35.7 36.8C36.6 38.2 38.5999 40.1 43.2999 41.1L43.7999 38.6C39.6999 37.8 38.2999 36.2 37.7999 35.4ZM24.8 22.6C23.7 19.1 20.8 13.3 17.2 10.3C17.2 10.3 27.6 13.1 33.7 32.6C28.1 30.9 25.6 25.2 24.8 22.6Z" fill="#4C4C4C"/>
    <path d="M13.7 2.59998C7.9 5.39998 5.5 12.1 5.5 22.4C5.5 32.5 7.8 39.3 13.7 42.2L13 44.7C4 41.6 -1.52588e-06 34.6 -1.52588e-06 22.4C-1.52588e-06 10.1 4.1 3.1 13 0L13.7 2.59998Z" fill="#4C4C4C"/>
    <path d="M56.9 0.0999817C65.9 3.19998 69.9 10.2 69.9 22.5C69.9 34.7 65.8 41.7 56.9 44.8L56.2 42.3C62 39.4 64.4 32.6 64.4 22.5C64.4 12.2 62.1 5.49999 56.2 2.69999L56.9 0.0999817Z" fill="#4C4C4C"/>
    <path d="M100.7 33.3C97.8001 34.6 94.2001 35 91.0001 35C82.9001 35 79.0001 31.5 80.2001 22.6C81.4001 14.2 84.6001 10.8 93.1001 10.8C96.3001 10.8 100.2 11.3 102.9 12.5L101.7 17.6H94.1001C90.7001 17.6 89.5001 18.8001 88.9001 22.9001C88.3001 27.5001 89.1001 28.3 92.4001 28.3C94.2001 28.3 97.1001 28.3001 99.9001 27.9001L100.7 33.3Z" fill="#4C4C4C"/>
    <path d="M130.3 23.3001C129 32.0001 125.5 35.0001 116.7 35.0001C107.9 35.0001 104.1 31.7 105.4 22.6C106.6 13.8 110.1 10.7001 119.1 10.7001C128 10.8001 131.6 14.2001 130.3 23.3001ZM114.2 23.3001C113.6 28.0001 114 29.1 117 29.1C119.9 29.1 120.9 27.8 121.6 22.6C122.3 17.8 121.8 16.7001 119 16.7001C116 16.7001 115 17.9001 114.2 23.3001Z" fill="#4C4C4C"/>
    <path d="M157.2 34.5001H150.6L150.5 30.6C148.3 32.7 145.1 35.1 141.5 35.1C136.1 35.1 133.7 31.3001 134.9 22.5001C136.2 12.9001 140 10.9001 144.9 10.9001C147.5 10.9001 150.1 11.1 152.3 11.6C152.3 10.1 152.3 8.6001 152.6 6.9001L153.4 2.20009H161.8L157.2 34.5001ZM148.4 16.2001C144.9 16.2001 144 16.9001 143.3 22.3001C142.7 26.5001 142.7 28.1001 144.7 28.0001C146.6 28.0001 148.2 27 149.9 25.6L151.2 16.2001H148.4V16.2001Z" fill="#4C4C4C"/>
    <path d="M186.2 33.2001C183.1 34.6001 179.1 35.1 175.6 35.1C165.8 35.1 163.1 30.8001 164 22.7001C165.1 13.1001 169.4 10.8 177.7 10.8C186.8 10.8 189.2 13.8 188.5 19.1C187.9 23.4 184.9 24.7 178.8 25.1L172.5 25.6C172.6 28.1 173.8 28.5 176.4 28.5C178.4 28.5 182.8 28.3001 185.6 27.9001L186.2 33.2001ZM176.9 20.7001C179 20.5001 180.1 20.2001 180.3 18.2001C180.4 16.7001 179.8 16.4001 177.5 16.4001C174.7 16.4001 173.7 17.3 173 21L176.9 20.7001Z" fill="#4C4C4C"/>
    <path d="M206.6 4.90007C203.8 4.90007 202.6 5.50005 202.2 8.50005L201.7 11.8H208.7L208.2 15.3H201.2L198.1 37.1C197.5 41.3 195.1 43.7001 190.7 43.7001C189.3 43.7001 187.4 43.6 185.1 43.3L185.8 40H189.3C192.1 40 193.2 39.4001 193.7 36.4001L196.7 15.3H192.7L193.1 12.1L197.2 11.9001L197.8 7.90007C198.4 3.70007 200.8 1.30004 205.2 1.30004C206.9 1.30004 210 1.30002 211.8 1.60002L211.1 4.90007H206.6V4.90007Z" fill="#4C4C4C"/>
    <path d="M227.7 15.4001H226.4C223.8 15.4001 221.4 17.1001 217.4 20.0001L215.4 34.4001H210.9L214.1 11.8001H217.5L217.3 17.0001C220.9 13.3001 224.4 11.2001 227.5 11.2001H228.7L227.7 15.4001Z" fill="#4C4C4C"/>
    <path d="M249.9 33.7001C247.4 34.7001 243.3 35.0001 240.6 35.0001C232.8 35.0001 230.1 31.0001 231.2 22.5001C232.4 13.7001 235.5 11.2001 243.7 11.2001C251.1 11.2001 252.9 14.0001 252.3 18.5001C251.6 23.0001 249 24.6001 243.4 25.0001L235.6 25.7001C235.6 30.2001 237.7 31.2001 241.3 31.2001C243.8 31.2001 247.1 30.9 249.7 30.6L249.9 33.7001ZM243.4 21.7001C246.2 21.5001 247.4 20.7 247.8 18.1C248.2 15 246.6 14.9001 243 14.9001C238.4 14.9001 236.8 16.2001 235.9 22.4001L243.4 21.7001Z" fill="#4C4C4C"/>
    <path d="M262.3 23.2C259.1 21.7 257.5 19.9 257.9 16.6C258.4 12.3 261.5 11.1 267.5 11.2C270.7 11.2 274.6 11.6 277.2 12L276.6 15.2C273.7 15.1 271 15 267.6 15C263.9 15 262.5 15.1 262.3 17C262.1 18.7 263.1 19.2 265 20L271.1 22.8C274.6 24.4 276.1 25.9 275.6 29.3C274.9 34.4 271.2 35 264.9 35C260 35 259.4 34.7 256.1 34.4L256.6 31.1C258.7 31.3 261.6 31.3 263.7 31.3C269.4 31.3 270.9 30.8 271.2 29C271.5 27.3 270.4 27.1 268.4 26.1L262.3 23.2Z" fill="#4C4C4C"/>
    <path d="M289.4 10.9001C289.1 12.8001 288.7 14.9001 288.3 16.5001C292.2 13.0001 295.5 11.3001 298.8 11.3001C302.6 11.3001 304.8 13.5001 304.2 17.7001L301.8 34.6001H297.3L299.5 18.8001C299.9 16.0001 299.4 15.1001 297.4 15.1001C294.6 15.1001 291.9 17.0001 288 20.1001L286 34.6001H281.5L286.1 2.10007H290.6L289.4 10.9001Z" fill="#4C4C4C"/>
</svg>
